<?xml version="1.0" encoding="UTF-8" standalone="no"?>
<!-- Created with Inkscape (http://www.inkscape.org/) -->

<svg
   width="151.19722"
   height="282.87421"
   viewBox="0 0 151.19722 282.87423"
   version="1.1"
   id="svg1"
   inkscape:version="1.4.1 (1:1.4.1+202503302257+93de688d07)"
   sodipodi:docname="inkscape.svg"
   xml:space="preserve"
   xmlns:inkscape="http://www.inkscape.org/namespaces/inkscape"
   xmlns:sodipodi="http://sodipodi.sourceforge.net/DTD/sodipodi-0.dtd"
   xmlns="http://www.w3.org/2000/svg"
   xmlns:svg="http://www.w3.org/2000/svg"><sodipodi:namedview
     id="namedview1"
     pagecolor="#ffffff"
     bordercolor="#000000"
     borderopacity="0.25"
     inkscape:showpageshadow="2"
     inkscape:pageopacity="0.0"
     inkscape:pagecheckerboard="false"
     inkscape:deskcolor="#d1d1d1"
     inkscape:document-units="px"
     inkscape:zoom="0.72856963"
     inkscape:cx="362.35384"
     inkscape:cy="115.98068"
     inkscape:window-width="1440"
     inkscape:window-height="875"
     inkscape:window-x="0"
     inkscape:window-y="0"
     inkscape:window-maximized="1"
     inkscape:current-layer="layer1"><inkscape:page
       x="0"
       y="0"
       width="151.19722"
       height="282.87424"
       id="page5"
       margin="0"
       bleed="0"
       inkscape:label="Player" /><inkscape:page
       x="183.25902"
       y="4.4909306"
       width="151.19722"
       height="117.11245"
       id="page27"
       margin="0"
       bleed="0"
       inkscape:label="GoldSack" /><inkscape:page
       x="376.76334"
       y="11.411177"
       width="91.69146"
       height="213.01183"
       id="page6"
       margin="0"
       bleed="0"
       inkscape:label="PremiumAccount" /><inkscape:page
       x="525.15161"
       y="16.164286"
       width="128"
       height="128.00002"
       id="page28"
       margin="0"
       bleed="0"
       inkscape:label="SteamLogo"
       inkscape:export-filename="WarningIcon.png"
       inkscape:export-xdpi="300"
       inkscape:export-ydpi="300" /><inkscape:page
       x="696.37823"
       y="15.26627"
       width="128"
       height="111.00001"
       id="page29"
       margin="0"
       bleed="0"
       inkscape:label="WarningIcon"
       inkscape:export-filename="WarningIcon.png"
       inkscape:export-xdpi="300"
       inkscape:export-ydpi="300" /></sodipodi:namedview><defs
     id="defs1"><filter
       inkscape:collect="always"
       style="color-interpolation-filters:sRGB"
       id="filter16"
       x="-0.057186049"
       y="-0.11028804"
       width="1.1143721"
       height="1.2205761"><feGaussianBlur
         inkscape:collect="always"
         stdDeviation="0.82200614"
         id="feGaussianBlur16" /></filter></defs><g
     inkscape:label="Layer 1"
     inkscape:groupmode="layer"
     id="layer1"
     transform="translate(-97.819384,32.05198)"><ellipse
       style="display:inline;fill:#f4f2f1;fill-opacity:1;stroke:none;stroke-width:7.84967;stroke-linecap:butt;stroke-linejoin:bevel;stroke-miterlimit:4;stroke-dasharray:none;stroke-opacity:1"
       id="ellipse27"
       cx="356.67703"
       cy="65.461197"
       rx="75.59861"
       ry="24.090193"
       inkscape:export-filename="/home/jirka/unisave/website/src/guides/why-not-to-build-game-backend-server-with-mysql-and-php/web-request-image.png"
       inkscape:export-xdpi="96"
       inkscape:export-ydpi="96" /><ellipse
       style="display:inline;fill:#f4f2f1;fill-opacity:1;stroke:none;stroke-width:7.84967;stroke-linecap:butt;stroke-linejoin:bevel;stroke-miterlimit:4;stroke-dasharray:none;stroke-opacity:1"
       id="ellipse134"
       cx="173.418"
       cy="226.73204"
       rx="75.59861"
       ry="24.090193"
       inkscape:export-filename="/home/jirka/unisave/website/src/guides/why-not-to-build-game-backend-server-with-mysql-and-php/web-request-image.png"
       inkscape:export-xdpi="96"
       inkscape:export-ydpi="96" /><g
       id="g7"
       transform="translate(2.0751894,-2.168004)"><circle
         style="fill:#353535;fill-opacity:1;stroke-width:0.461949"
         cy="8.3207855"
         cx="171.34261"
         id="circle138"
         r="38.204762" /><path
         style="fill:#353535;fill-opacity:1;stroke-width:0.556271"
         d="m 171.34272,46.5254 a 45.845713,46.165858 0 0 0 -45.84564,46.1651 v 73.6458 h 91.69146 V 92.6905 A 45.845713,46.165858 0 0 0 171.34272,46.5254 Z"
         id="path139"
         inkscape:connector-curvature="0" /><path
         inkscape:connector-curvature="0"
         id="path140"
         d="m 137.88356,143.2524 v 77.3826 h 26.45381 v -77.3826 z"
         style="color:#000000;font-style:normal;font-variant:normal;font-weight:normal;font-stretch:normal;font-size:medium;line-height:normal;font-family:sans-serif;font-variant-ligatures:normal;font-variant-position:normal;font-variant-caps:normal;font-variant-numeric:normal;font-variant-alternates:normal;font-feature-settings:normal;text-indent:0;text-align:start;text-decoration:none;text-decoration-line:none;text-decoration-style:solid;text-decoration-color:#000000;letter-spacing:normal;word-spacing:normal;text-transform:none;writing-mode:lr-tb;direction:ltr;text-orientation:mixed;dominant-baseline:auto;baseline-shift:baseline;text-anchor:start;white-space:normal;shape-padding:0;clip-rule:nonzero;display:inline;overflow:visible;visibility:visible;isolation:auto;mix-blend-mode:normal;color-interpolation:sRGB;color-interpolation-filters:linearRGB;solid-color:#000000;solid-opacity:1;vector-effect:none;fill:#353535;fill-opacity:1;fill-rule:nonzero;stroke:none;stroke-width:21.0702;stroke-linecap:butt;stroke-linejoin:miter;stroke-miterlimit:4;stroke-dasharray:none;stroke-dashoffset:0;stroke-opacity:1;color-rendering:auto;image-rendering:auto;shape-rendering:auto;text-rendering:auto;enable-background:accumulate" /><path
         inkscape:connector-curvature="0"
         id="path141"
         d="M 178.34768,143.2524 V 220.635 H 204.8015 V 143.2524 Z"
         style="color:#000000;font-style:normal;font-variant:normal;font-weight:normal;font-stretch:normal;font-size:medium;line-height:normal;font-family:sans-serif;font-variant-ligatures:normal;font-variant-position:normal;font-variant-caps:normal;font-variant-numeric:normal;font-variant-alternates:normal;font-feature-settings:normal;text-indent:0;text-align:start;text-decoration:none;text-decoration-line:none;text-decoration-style:solid;text-decoration-color:#000000;letter-spacing:normal;word-spacing:normal;text-transform:none;writing-mode:lr-tb;direction:ltr;text-orientation:mixed;dominant-baseline:auto;baseline-shift:baseline;text-anchor:start;white-space:normal;shape-padding:0;clip-rule:nonzero;display:inline;overflow:visible;visibility:visible;isolation:auto;mix-blend-mode:normal;color-interpolation:sRGB;color-interpolation-filters:linearRGB;solid-color:#000000;solid-opacity:1;vector-effect:none;fill:#353535;fill-opacity:1;fill-rule:nonzero;stroke:none;stroke-width:21.0702;stroke-linecap:butt;stroke-linejoin:miter;stroke-miterlimit:4;stroke-dasharray:none;stroke-dashoffset:0;stroke-opacity:1;color-rendering:auto;image-rendering:auto;shape-rendering:auto;text-rendering:auto;enable-background:accumulate" /></g><circle
       style="fill:#353535;fill-opacity:1;stroke-width:0.461949"
       cy="69.396751"
       cx="520.42828"
       id="circle1"
       r="38.204762" /><path
       style="fill:#353535;fill-opacity:1;stroke-width:0.556271"
       d="m 520.4284,107.60136 c -25.31957,4e-5 -45.84522,20.66873 -45.84564,46.1651 v 36.82715 c 36.36963,-12.57222 56.21983,7.63314 91.69146,0 v -36.82715 c -4.2e-4,-25.49645 -20.52618,-46.16516 -45.84582,-46.1651 z"
       id="path2"
       inkscape:connector-curvature="0"
       sodipodi:nodetypes="sccccs" /><path
       id="rect4"
       style="fill:#fbbf24;stroke:none;stroke-width:7.55906;stroke-dasharray:none;stroke-opacity:1;paint-order:markers stroke fill"
       d="m 488.43229,-20.640805 18.68029,22.2247551 13.3157,-22.2247551 13.31569,22.2247551 18.68029,-22.2247551 -9.92998,47.369567 c -16.6772,-6.669791 -27.61167,-7.01871 -44.13201,0 z"
       sodipodi:nodetypes="cccccccc" /><g
       id="g8"
       transform="translate(-326.87773,-105.06784)"><path
         style="fill:#b67300;fill-opacity:1;stroke:none;stroke-width:10.018;stroke-dasharray:none;stroke-opacity:1;paint-order:markers stroke fill"
         d="m 647.81147,84.199702 c 0,0 20.36669,12.651547 22.0498,21.487868 1.6831,8.83633 -21.20825,20.16907 -22.0498,34.89628 -0.84157,14.72721 -5.97558,23.78669 35.26059,24.20746 41.23617,0.42078 37.95464,-8.6387 37.95464,-25.04901 0,-16.41032 -29.76494,-26.0882 -29.76494,-35.34529 0,-9.257101 16.72085,-26.088188 16.72085,-26.088188 -21.29283,-2.475458 -41.2725,1.142793 -60.17114,5.89088 z"
         id="path6"
         sodipodi:nodetypes="cssssscc" /><path
         style="fill:none;fill-opacity:1;stroke:#fbbf24;stroke-width:7.55906;stroke-linecap:round;stroke-dasharray:none;stroke-opacity:1;paint-order:markers stroke fill"
         d="m 691.34865,104.2976 -21.43101,1.11124 c 0,0 -8.25491,14.28734 -2.85747,26.35221 5.39744,12.06487 6.66743,14.28734 4.76245,20.95477"
         id="path7"
         sodipodi:nodetypes="ccsc" /></g><g
       id="g16"
       transform="translate(-317.89758,-123.47716)"><path
         id="path16"
         style="baseline-shift:baseline;display:inline;overflow:visible;opacity:0.110667;vector-effect:none;fill:#000000;fill-opacity:1;stroke-linecap:round;paint-order:markers stroke fill;filter:url(#filter16);enable-background:accumulate;stop-color:#000000"
         d="m 689.6754,182.67546 c -4.11006,1.7e-4 -7.83799,0.59774 -10.875,1.76172 -1.5185,0.58199 -2.88306,1.29191 -4.07226,2.36914 -1.18497,1.07339 -2.28552,2.75243 -2.29492,4.78711 h -0.006 c -1e-5,0.004 10e-6,0.007 0,0.01 0,0.002 10e-6,0.002 0,0.004 v 0.006 0.004 0.01 c 10e-6,7.5e-4 0,0.003 0,0.004 10e-6,0.003 -1e-5,0.006 0,0.01 h 0.006 c 0.009,2.0334 1.10882,3.71558 2.29297,4.78906 1.18918,1.07805 2.55357,1.78686 4.07226,2.36914 3.03738,1.16457 6.7658,1.76349 10.87695,1.76367 4.11157,5e-5 7.84113,-0.59912 10.87891,-1.76367 1.51888,-0.58227 2.88294,-1.29107 4.07227,-2.36914 1.18933,-1.07806 2.29931,-2.76725 2.29882,-4.8125 -10e-4,-2.04478 -1.11337,-3.73132 -2.30273,-4.80859 -1.18937,-1.07728 -2.5516,-1.78717 -4.07031,-2.36915 -3.47867,-1.3059 -7.21147,-1.76226 -10.87696,-1.76367 z m 0,3.7793 c 7.43808,-1e-4 13.46871,2.31085 13.47071,5.16211 6.8e-4,2.85203 -6.03064,5.16416 -13.47071,5.16406 -7.43165,-3.1e-4 -13.45705,-2.30661 -13.46875,-5.1543 0,-0.002 0,-0.005 0,-0.008 v -0.002 c -10e-6,-0.003 -10e-6,-0.007 0,-0.01 0.0159,-2.84647 6.03994,-5.15203 13.46875,-5.15234 z" /><path
         id="path14"
         style="baseline-shift:baseline;display:inline;overflow:visible;vector-effect:none;fill:#fbbf24;stroke-linecap:round;paint-order:markers stroke fill;enable-background:accumulate;stop-color:#000000"
         d="m 672.42736,183.53087 c -1.9e-4,0.008 -2e-5,0.0157 0,0.0234 v 7.5918 0.008 c -4.8e-4,2.04505 1.10966,3.73446 2.29883,4.8125 1.18918,1.07804 2.55357,1.78686 4.07226,2.36914 3.03738,1.16456 6.7658,1.7635 10.87695,1.76367 4.11157,5e-5 7.84113,-0.59913 10.87891,-1.76367 1.51888,-0.58228 2.88294,-1.29108 4.07227,-2.36914 1.18933,-1.07807 2.29931,-2.76725 2.29882,-4.8125 v -7.62109 -0.002 c 0,-8.63796 -34.2762,-9.20154 -34.49804,-1.1e-4 z"
         sodipodi:nodetypes="sccssssssccss" /><path
         id="path12"
         style="baseline-shift:baseline;display:inline;overflow:visible;vector-effect:none;fill:#fccb51;stroke-linecap:round;paint-order:markers stroke fill;enable-background:accumulate;stop-color:#000000"
         d="m 689.6754,174.59332 c -4.11006,1.7e-4 -7.83799,0.59774 -10.875,1.76172 -1.5185,0.58199 -2.88306,1.29191 -4.07226,2.36914 -1.18497,1.07339 -2.28552,2.75243 -2.29492,4.78711 h -0.006 c -1e-5,0.004 10e-6,0.007 0,0.01 0,0.002 10e-6,0.002 0,0.004 v 0.006 0.004 0.01 c 10e-6,7.5e-4 0,0.003 0,0.004 10e-6,0.003 -1e-5,0.006 0,0.01 h 0.006 c 0.009,2.0334 1.10882,3.71558 2.29297,4.78906 1.18918,1.07805 2.55357,1.78686 4.07226,2.36914 3.03738,1.16457 6.7658,1.76349 10.87695,1.76367 4.11157,5e-5 7.84113,-0.59912 10.87891,-1.76367 1.51888,-0.58227 2.88294,-1.29107 4.07227,-2.36914 1.18933,-1.07806 2.29931,-2.76725 2.29882,-4.8125 -10e-4,-2.04478 -1.11337,-3.73132 -2.30273,-4.80859 -1.18937,-1.07728 -2.5516,-1.78717 -4.07031,-2.36915 -3.47867,-1.3059 -7.21147,-1.76226 -10.87696,-1.76367 z m 0,3.7793 c 7.43808,-1e-4 13.46871,2.31085 13.47071,5.16211 6.8e-4,2.85203 -6.03064,5.16416 -13.47071,5.16406 -7.43165,-3.1e-4 -13.45705,-2.30661 -13.46875,-5.1543 0,-0.002 0,-0.005 0,-0.008 v -0.002 c -10e-6,-0.003 -10e-6,-0.007 0,-0.01 0.0159,-2.84647 6.03994,-5.15203 13.46875,-5.15234 z" /></g><g
       id="g21"
       transform="translate(-309.81543,-136.49839)"><path
         id="path19"
         style="baseline-shift:baseline;display:inline;overflow:visible;opacity:0.110667;vector-effect:none;fill:#000000;fill-opacity:1;stroke-linecap:round;paint-order:markers stroke fill;filter:url(#filter16);enable-background:accumulate;stop-color:#000000"
         d="m 689.6754,182.67546 c -4.11006,1.7e-4 -7.83799,0.59774 -10.875,1.76172 -1.5185,0.58199 -2.88306,1.29191 -4.07226,2.36914 -1.18497,1.07339 -2.28552,2.75243 -2.29492,4.78711 h -0.006 c -1e-5,0.004 10e-6,0.007 0,0.01 0,0.002 10e-6,0.002 0,0.004 v 0.006 0.004 0.01 c 10e-6,7.5e-4 0,0.003 0,0.004 10e-6,0.003 -1e-5,0.006 0,0.01 h 0.006 c 0.009,2.0334 1.10882,3.71558 2.29297,4.78906 1.18918,1.07805 2.55357,1.78686 4.07226,2.36914 3.03738,1.16457 6.7658,1.76349 10.87695,1.76367 4.11157,5e-5 7.84113,-0.59912 10.87891,-1.76367 1.51888,-0.58227 2.88294,-1.29107 4.07227,-2.36914 1.18933,-1.07806 2.29931,-2.76725 2.29882,-4.8125 -10e-4,-2.04478 -1.11337,-3.73132 -2.30273,-4.80859 -1.18937,-1.07728 -2.5516,-1.78717 -4.07031,-2.36915 -3.47867,-1.3059 -7.21147,-1.76226 -10.87696,-1.76367 z m 0,3.7793 c 7.43808,-1e-4 13.46871,2.31085 13.47071,5.16211 6.8e-4,2.85203 -6.03064,5.16416 -13.47071,5.16406 -7.43165,-3.1e-4 -13.45705,-2.30661 -13.46875,-5.1543 0,-0.002 0,-0.005 0,-0.008 v -0.002 c -10e-6,-0.003 -10e-6,-0.007 0,-0.01 0.0159,-2.84647 6.03994,-5.15203 13.46875,-5.15234 z" /><path
         id="path20"
         style="baseline-shift:baseline;display:inline;overflow:visible;vector-effect:none;fill:#fbbf24;stroke-linecap:round;paint-order:markers stroke fill;enable-background:accumulate;stop-color:#000000"
         d="m 672.42736,183.53087 c -1.9e-4,0.008 -2e-5,0.0157 0,0.0234 v 7.5918 0.008 c -4.8e-4,2.04505 1.10966,3.73446 2.29883,4.8125 1.18918,1.07804 2.55357,1.78686 4.07226,2.36914 3.03738,1.16456 6.7658,1.7635 10.87695,1.76367 4.11157,5e-5 7.84113,-0.59913 10.87891,-1.76367 1.51888,-0.58228 2.88294,-1.29108 4.07227,-2.36914 1.18933,-1.07807 2.29931,-2.76725 2.29882,-4.8125 v -7.62109 -0.002 c 0,-8.63796 -34.2762,-9.20154 -34.49804,-1.1e-4 z"
         sodipodi:nodetypes="sccssssssccss" /><path
         id="path21"
         style="baseline-shift:baseline;display:inline;overflow:visible;vector-effect:none;fill:#fccb51;stroke-linecap:round;paint-order:markers stroke fill;enable-background:accumulate;stop-color:#000000"
         d="m 689.6754,174.59332 c -4.11006,1.7e-4 -7.83799,0.59774 -10.875,1.76172 -1.5185,0.58199 -2.88306,1.29191 -4.07226,2.36914 -1.18497,1.07339 -2.28552,2.75243 -2.29492,4.78711 h -0.006 c -1e-5,0.004 10e-6,0.007 0,0.01 0,0.002 10e-6,0.002 0,0.004 v 0.006 0.004 0.01 c 10e-6,7.5e-4 0,0.003 0,0.004 10e-6,0.003 -1e-5,0.006 0,0.01 h 0.006 c 0.009,2.0334 1.10882,3.71558 2.29297,4.78906 1.18918,1.07805 2.55357,1.78686 4.07226,2.36914 3.03738,1.16457 6.7658,1.76349 10.87695,1.76367 4.11157,5e-5 7.84113,-0.59912 10.87891,-1.76367 1.51888,-0.58227 2.88294,-1.29107 4.07227,-2.36914 1.18933,-1.07806 2.29931,-2.76725 2.29882,-4.8125 -10e-4,-2.04478 -1.11337,-3.73132 -2.30273,-4.80859 -1.18937,-1.07728 -2.5516,-1.78717 -4.07031,-2.36915 -3.47867,-1.3059 -7.21147,-1.76226 -10.87696,-1.76367 z m 0,3.7793 c 7.43808,-1e-4 13.46871,2.31085 13.47071,5.16211 6.8e-4,2.85203 -6.03064,5.16416 -13.47071,5.16406 -7.43165,-3.1e-4 -13.45705,-2.30661 -13.46875,-5.1543 0,-0.002 0,-0.005 0,-0.008 v -0.002 c -10e-6,-0.003 -10e-6,-0.007 0,-0.01 0.0159,-2.84647 6.03994,-5.15203 13.46875,-5.15234 z" /></g><g
       id="g24"
       transform="translate(-316.55055,-152.21368)"><path
         id="path22"
         style="baseline-shift:baseline;display:inline;overflow:visible;opacity:0.110667;vector-effect:none;fill:#000000;fill-opacity:1;stroke-linecap:round;paint-order:markers stroke fill;filter:url(#filter16);enable-background:accumulate;stop-color:#000000"
         d="m 689.6754,182.67546 c -4.11006,1.7e-4 -7.83799,0.59774 -10.875,1.76172 -1.5185,0.58199 -2.88306,1.29191 -4.07226,2.36914 -1.18497,1.07339 -2.28552,2.75243 -2.29492,4.78711 h -0.006 c -1e-5,0.004 10e-6,0.007 0,0.01 0,0.002 10e-6,0.002 0,0.004 v 0.006 0.004 0.01 c 10e-6,7.5e-4 0,0.003 0,0.004 10e-6,0.003 -1e-5,0.006 0,0.01 h 0.006 c 0.009,2.0334 1.10882,3.71558 2.29297,4.78906 1.18918,1.07805 2.55357,1.78686 4.07226,2.36914 3.03738,1.16457 6.7658,1.76349 10.87695,1.76367 4.11157,5e-5 7.84113,-0.59912 10.87891,-1.76367 1.51888,-0.58227 2.88294,-1.29107 4.07227,-2.36914 1.18933,-1.07806 2.29931,-2.76725 2.29882,-4.8125 -10e-4,-2.04478 -1.11337,-3.73132 -2.30273,-4.80859 -1.18937,-1.07728 -2.5516,-1.78717 -4.07031,-2.36915 -3.47867,-1.3059 -7.21147,-1.76226 -10.87696,-1.76367 z m 0,3.7793 c 7.43808,-1e-4 13.46871,2.31085 13.47071,5.16211 6.8e-4,2.85203 -6.03064,5.16416 -13.47071,5.16406 -7.43165,-3.1e-4 -13.45705,-2.30661 -13.46875,-5.1543 0,-0.002 0,-0.005 0,-0.008 v -0.002 c -10e-6,-0.003 -10e-6,-0.007 0,-0.01 0.0159,-2.84647 6.03994,-5.15203 13.46875,-5.15234 z" /><path
         id="path23"
         style="baseline-shift:baseline;display:inline;overflow:visible;vector-effect:none;fill:#fbbf24;stroke-linecap:round;paint-order:markers stroke fill;enable-background:accumulate;stop-color:#000000"
         d="m 672.42736,183.53087 c -1.9e-4,0.008 -2e-5,0.0157 0,0.0234 v 7.5918 0.008 c -4.8e-4,2.04505 1.10966,3.73446 2.29883,4.8125 1.18918,1.07804 2.55357,1.78686 4.07226,2.36914 3.03738,1.16456 6.7658,1.7635 10.87695,1.76367 4.11157,5e-5 7.84113,-0.59913 10.87891,-1.76367 1.51888,-0.58228 2.88294,-1.29108 4.07227,-2.36914 1.18933,-1.07807 2.29931,-2.76725 2.29882,-4.8125 v -7.62109 -0.002 c 0,-8.63796 -34.2762,-9.20154 -34.49804,-1.1e-4 z"
         sodipodi:nodetypes="sccssssssccss" /><path
         id="path24"
         style="baseline-shift:baseline;display:inline;overflow:visible;vector-effect:none;fill:#fccb51;stroke-linecap:round;paint-order:markers stroke fill;enable-background:accumulate;stop-color:#000000"
         d="m 689.6754,174.59332 c -4.11006,1.7e-4 -7.83799,0.59774 -10.875,1.76172 -1.5185,0.58199 -2.88306,1.29191 -4.07226,2.36914 -1.18497,1.07339 -2.28552,2.75243 -2.29492,4.78711 h -0.006 c -1e-5,0.004 10e-6,0.007 0,0.01 0,0.002 10e-6,0.002 0,0.004 v 0.006 0.004 0.01 c 10e-6,7.5e-4 0,0.003 0,0.004 10e-6,0.003 -1e-5,0.006 0,0.01 h 0.006 c 0.009,2.0334 1.10882,3.71558 2.29297,4.78906 1.18918,1.07805 2.55357,1.78686 4.07226,2.36914 3.03738,1.16457 6.7658,1.76349 10.87695,1.76367 4.11157,5e-5 7.84113,-0.59912 10.87891,-1.76367 1.51888,-0.58227 2.88294,-1.29107 4.07227,-2.36914 1.18933,-1.07806 2.29931,-2.76725 2.29882,-4.8125 -10e-4,-2.04478 -1.11337,-3.73132 -2.30273,-4.80859 -1.18937,-1.07728 -2.5516,-1.78717 -4.07031,-2.36915 -3.47867,-1.3059 -7.21147,-1.76226 -10.87696,-1.76367 z m 0,3.7793 c 7.43808,-1e-4 13.46871,2.31085 13.47071,5.16211 6.8e-4,2.85203 -6.03064,5.16416 -13.47071,5.16406 -7.43165,-3.1e-4 -13.45705,-2.30661 -13.46875,-5.1543 0,-0.002 0,-0.005 0,-0.008 v -0.002 c -10e-6,-0.003 -10e-6,-0.007 0,-0.01 0.0159,-2.84647 6.03994,-5.15203 13.46875,-5.15234 z" /></g><g
       id="g27"
       transform="rotate(-38.212477,334.48504,622.22111)"><path
         id="path25"
         style="baseline-shift:baseline;display:inline;overflow:visible;opacity:0.110667;vector-effect:none;fill:#000000;fill-opacity:1;stroke-linecap:round;paint-order:markers stroke fill;filter:url(#filter16);enable-background:accumulate;stop-color:#000000"
         d="m 689.6754,182.67546 c -4.11006,1.7e-4 -7.83799,0.59774 -10.875,1.76172 -1.5185,0.58199 -2.88306,1.29191 -4.07226,2.36914 -1.18497,1.07339 -2.28552,2.75243 -2.29492,4.78711 h -0.006 c -1e-5,0.004 10e-6,0.007 0,0.01 0,0.002 10e-6,0.002 0,0.004 v 0.006 0.004 0.01 c 10e-6,7.5e-4 0,0.003 0,0.004 10e-6,0.003 -1e-5,0.006 0,0.01 h 0.006 c 0.009,2.0334 1.10882,3.71558 2.29297,4.78906 1.18918,1.07805 2.55357,1.78686 4.07226,2.36914 3.03738,1.16457 6.7658,1.76349 10.87695,1.76367 4.11157,5e-5 7.84113,-0.59912 10.87891,-1.76367 1.51888,-0.58227 2.88294,-1.29107 4.07227,-2.36914 1.18933,-1.07806 2.29931,-2.76725 2.29882,-4.8125 -10e-4,-2.04478 -1.11337,-3.73132 -2.30273,-4.80859 -1.18937,-1.07728 -2.5516,-1.78717 -4.07031,-2.36915 -3.47867,-1.3059 -7.21147,-1.76226 -10.87696,-1.76367 z m 0,3.7793 c 7.43808,-1e-4 13.46871,2.31085 13.47071,5.16211 6.8e-4,2.85203 -6.03064,5.16416 -13.47071,5.16406 -7.43165,-3.1e-4 -13.45705,-2.30661 -13.46875,-5.1543 0,-0.002 0,-0.005 0,-0.008 v -0.002 c -10e-6,-0.003 -10e-6,-0.007 0,-0.01 0.0159,-2.84647 6.03994,-5.15203 13.46875,-5.15234 z" /><path
         id="path26"
         style="baseline-shift:baseline;display:inline;overflow:visible;vector-effect:none;fill:#fbbf24;stroke-linecap:round;paint-order:markers stroke fill;enable-background:accumulate;stop-color:#000000"
         d="m 672.42736,183.53087 c -1.9e-4,0.008 -2e-5,0.0157 0,0.0234 v 7.5918 0.008 c -4.8e-4,2.04505 1.10966,3.73446 2.29883,4.8125 1.18918,1.07804 2.55357,1.78686 4.07226,2.36914 3.03738,1.16456 6.7658,1.7635 10.87695,1.76367 4.11157,5e-5 7.84113,-0.59913 10.87891,-1.76367 1.51888,-0.58228 2.88294,-1.29108 4.07227,-2.36914 1.18933,-1.07807 2.29931,-2.76725 2.29882,-4.8125 v -7.62109 -0.002 c 0,-8.63796 -34.2762,-9.20154 -34.49804,-1.1e-4 z"
         sodipodi:nodetypes="sccssssssccss" /><path
         id="path27"
         style="baseline-shift:baseline;display:inline;overflow:visible;vector-effect:none;fill:#fccb51;stroke-linecap:round;paint-order:markers stroke fill;enable-background:accumulate;stop-color:#000000"
         d="m 689.6754,174.59332 c -4.11006,1.7e-4 -7.83799,0.59774 -10.875,1.76172 -1.5185,0.58199 -2.88306,1.29191 -4.07226,2.36914 -1.18497,1.07339 -2.28552,2.75243 -2.29492,4.78711 h -0.006 c -1e-5,0.004 10e-6,0.007 0,0.01 0,0.002 10e-6,0.002 0,0.004 v 0.006 0.004 0.01 c 10e-6,7.5e-4 0,0.003 0,0.004 10e-6,0.003 -1e-5,0.006 0,0.01 h 0.006 c 0.009,2.0334 1.10882,3.71558 2.29297,4.78906 1.18918,1.07805 2.55357,1.78686 4.07226,2.36914 3.03738,1.16457 6.7658,1.76349 10.87695,1.76367 4.11157,5e-5 7.84113,-0.59912 10.87891,-1.76367 1.51888,-0.58227 2.88294,-1.29107 4.07227,-2.36914 1.18933,-1.07806 2.29931,-2.76725 2.29882,-4.8125 -10e-4,-2.04478 -1.11337,-3.73132 -2.30273,-4.80859 -1.18937,-1.07728 -2.5516,-1.78717 -4.07031,-2.36915 -3.47867,-1.3059 -7.21147,-1.76226 -10.87696,-1.76367 z m 0,3.7793 c 7.43808,-1e-4 13.46871,2.31085 13.47071,5.16211 6.8e-4,2.85203 -6.03064,5.16416 -13.47071,5.16406 -7.43165,-3.1e-4 -13.45705,-2.30661 -13.46875,-5.1543 0,-0.002 0,-0.005 0,-0.008 v -0.002 c -10e-6,-0.003 -10e-6,-0.007 0,-0.01 0.0159,-2.84647 6.03994,-5.15203 13.46875,-5.15234 z" /></g><path
       style="fill:#353535;fill-opacity:1;stroke-width:0.23999"
       d="m 682.61968,113.45509 c -0.46199,-0.0548 -1.91992,-0.21534 -3.23986,-0.35668 C 657.7001,110.7771 637.7912,96.208902 628.6085,75.946844 c -1.47388,-3.25217 -3.40945,-8.56553 -3.29581,-9.04736 0.0446,-0.18867 4.4286,1.52188 12.218,4.76712 l 12.14861,5.06138 0.2765,1.21517 c 0.15208,0.66833 0.78082,2.24111 1.39719,3.49507 0.95653,1.94595 1.45661,2.61535 3.41422,4.57015 3.78282,3.77738 7.5565,5.3684 12.73311,5.3684 4.75872,0 8.74327,-1.55216 12.14881,-4.73258 3.7101,-3.46484 5.61315,-7.45396 6.00981,-12.59772 l 0.14762,-1.91446 10.82604,-7.7902 10.82604,-7.79017 2.39988,-0.13809 c 10.39149,-0.59786 19.54094,-8.6577 21.85627,-19.25346 0.66591,-3.04729 0.57072,-8.00186 -0.21069,-10.96894 -3.10353,-11.78445 -13.84213,-19.4903097 -25.64344,-18.4013397 -9.54864,0.88109 -17.64966,7.2839197 -20.76343,16.4108297 -0.68197,1.99905 -1.27696,5.22249 -1.27931,6.93114 -0.002,1.21735 -0.071,1.32996 -7.63079,12.38805 l -7.6291,11.15951 -2.26881,0.15872 c -2.67429,0.18706 -4.97106,0.85102 -7.36197,2.12823 l -1.73335,0.92595 -16.98585,-7.081 c -9.34223,-3.89454 -17.07477,-7.16864 -17.18343,-7.27578 -0.24685,-0.24337 0.39494,-4.98017 1.17973,-8.70707 2.50141,-11.87902 8.76043,-23.2976 17.60253,-32.1129796 3.35955,-3.34939998 5.8186,-5.34585 10.09409,-8.19519 7.51351,-5.0072804 16.33599,-8.3810704 25.71358,-9.8331204 4.94961,-0.7664 13.46028,-0.7664 18.40988,0 13.98676,2.16573 26.04301,8.2521704 35.92923,18.1383804 18.7257,18.7256996 24.17786,46.7824396 13.87145,71.3822596 -1.50968,3.60335 -3.41222,7.12145 -5.72716,10.59034 -2.73672,4.1009 -4.75485,6.56775 -8.15351,9.96641 -10.07571,10.075696 -22.61661,16.289866 -36.84528,18.257286 -2.46571,0.34092 -10.81529,0.63084 -12.47948,0.43331 z m -18.8392,-27.185066 c -2.00175,-0.5752 -3.81521,-1.61067 -5.42652,-3.0985 -1.34359,-1.24064 -3.03824,-3.54814 -2.7889,-3.79747 0.0694,-0.0693 1.9461,0.62956 4.1707,1.55303 4.95282,2.056 5.87445,2.29842 8.0459,2.11637 5.71087,-0.47878 10.08666,-6.12309 9.0746,-11.70521 -0.5276,-2.90994 -2.15993,-5.41266 -4.49242,-6.88784 -0.62901,-0.39781 -2.92561,-1.45371 -5.10351,-2.34642 -2.1779,-0.89271 -4.0538,-1.70486 -4.1686,-1.80475 -0.33863,-0.29465 1.49451,-0.72242 3.68862,-0.86075 8.61064,-0.5429 15.55585,7.28653 14.07511,15.86707 -0.93841,5.43787 -4.83991,9.70291 -10.10571,11.04728 -1.8771,0.4792 -5.14868,0.44035 -6.96927,-0.0828 z m 40.67828,-38.30916 c -0.85796,-0.19222 -2.47789,-0.80033 -3.59985,-1.35137 -2.66072,-1.3068 -5.69446,-4.26255 -7.03829,-6.85739 -3.54476,-6.84462 -1.9008,-15.23214 3.95178,-20.16199 6.04257,-5.08989 15.11709,-4.89547 20.94944,0.44882 3.38213,3.09911 5.41608,7.64785 5.41608,12.1126 0,3.58122 -1.77043,8.15265 -4.18986,10.81845 -1.81578,2.00072 -4.47069,3.74006 -6.91818,4.53239 -2.45348,0.79425 -6.18208,0.99372 -8.57112,0.45849 z m 6.9944,-4.19825 c 4.03534,-1.26247 7.21602,-4.52755 8.27131,-8.49085 0.49402,-1.85532 0.42488,-5.08535 -0.14858,-6.942 -1.73242,-5.60888 -7.67416,-9.30505 -13.40066,-8.33606 -2.5975,0.43953 -5.17367,1.80956 -6.89142,3.66493 -4.58618,4.95362 -4.46685,12.35263 0.27571,17.09519 1.49559,1.49559 3.72893,2.79743 5.51955,3.21737 1.72108,0.40365 4.73212,0.30513 6.37409,-0.20858 z"
       id="path28" /><g
       id="g29"
       transform="matrix(0.8447016,0,0,0.8447016,502.4895,-236.67943)"><path
         sodipodi:type="star"
         style="opacity:1;fill:#fbbf24;fill-opacity:1;stroke:#fccb51;stroke-width:7.55906;stroke-linecap:round;stroke-dasharray:none;stroke-opacity:1;paint-order:markers stroke fill"
         id="path29"
         inkscape:flatsided="false"
         sodipodi:sides="3"
         sodipodi:cx="407.63483"
         sodipodi:cy="381.93329"
         sodipodi:r1="79.928444"
         sodipodi:r2="39.964222"
         sodipodi:arg1="-1.5707963"
         sodipodi:arg2="-0.52359878"
         inkscape:rounded="0"
         inkscape:randomized="0"
         d="m 407.63483,302.00484 34.61003,59.94634 34.61003,59.94633 -69.22006,0 -69.22007,0 34.61004,-59.94633 z"
         inkscape:transform-center-y="-19.982113"
         transform="translate(13.470236,-34.124598)" /><path
         style="font-weight:bold;font-size:92.885px;line-height:1.1;font-family:'Fira Sans';-inkscape-font-specification:'Fira Sans Bold';text-align:center;text-anchor:middle;fill:#b67300;stroke-width:11.7021;stroke-linecap:round;paint-order:markers stroke fill"
         d="m 428.8611,310.92281 -1.8577,40.68363 h -11.88928 l -1.8577,-40.68363 z m -7.80234,49.13616 q 3.52963,0 5.94464,2.5079 2.50789,2.41501 2.50789,5.85175 0,3.52963 -2.50789,6.03753 -2.41501,2.41501 -5.94464,2.41501 -3.43675,0 -5.94464,-2.41501 -2.41501,-2.5079 -2.41501,-6.03753 0,-3.43674 2.41501,-5.85175 2.50789,-2.5079 5.94464,-2.5079 z"
         id="text29"
         aria-label="!" /></g></g></svg>
